<?xml version="1.0" encoding="UTF-8"?>
<svg id="Capa_2" data-name="Capa 2" xmlns="http://www.w3.org/2000/svg" viewBox="0 0 127.55 127.55">
  <defs>
    <style>
      .cls-1 {
        fill: #e9e1df;
      }
    </style>
  </defs>
  <g id="Colores">
    <g>
      <path class="cls-1" d="M111.61,23.92l-1.12-.56-14.83-7.41-1.11-.56-10-5-4.83-2.42-1.11-.55L63.78,0,0,31.89v63.78l62.77,31.38,1,.5,1-.5v-63.77l62.78-31.39-15.94-7.97ZM108.26,24.48l-59.31,29.65-13.71-6.85,59.31-29.65,13.71,6.85ZM33.92,48.86v29.85l-.91.46-1.09.54v-31.86l1.08.55.92.46M47.42,55.61l.42.21,1.11.55.47.24v14.35l-.47.23-1.11.56-.42.21v-16.35M92.31,16.51l-59.31,29.65-13.7-6.85,59.31-29.66,13.7,6.86ZM17.94,40.87v45.83l-.88.44-1.11.55h0s0-47.82,0-47.82h0l1.11.55.88.45ZM63.78,2.24l12.59,6.3-59.31,29.65-12.59-6.3L63.78,2.24ZM62.77,124.82L4.47,95.67l12.59-6.3,45.71,22.85v12.6ZM62.77,109.99l-43.47-21.74,13.71-6.85,29.76,14.88v13.71ZM62.77,94.05l-27.53-13.77,13.71-6.85,13.82,6.91v13.71ZM62.77,78.1l-11.58-5.79,11.58-5.79v11.58ZM63.78,61.55l-12.6-6.3,59.31-29.65,12.59,6.29-59.3,29.66Z"/>
      <polygon class="cls-1" points="64.77 127.05 64.77 127.06 63.77 127.55 64.77 127.05"/>
    </g>
  </g>
</svg>